<svg xmlns="http://www.w3.org/2000/svg" version="1.1" xmlns:xlink="http://www.w3.org/1999/xlink" xmlns:svgjs="http://svgjs.dev/svgjs" width="150" height="150"><svg width="150" height="150" version="1.1" viewBox="0 0 150 150" xmlns="http://www.w3.org/2000/svg">
 <g>
  <path x="0" y="-5.5511151e-17" width="150" height="150" ry="15.406192" d="m15.406 0h119.19c8.535 0 15.406 6.8712 15.406 15.406v119.19c0 8.535-6.8712 15.406-15.406 15.406h-119.19c-8.535 0-15.406-6.8712-15.406-15.406v-119.19c0-8.535 6.8712-15.406 15.406-15.406z" fill="#e2e6f2" stroke-width=".41866"></path>
  <g fill="#7b8bc4" stroke-width=".25219">
   <rect x="1.1102e-16" y="15" width="150" height="1" opacity=".56731"></rect>
   <rect x="-1.1102e-16" y="30" width="150" height="1" opacity=".56731"></rect>
   <rect y="45" width="150" height="1" opacity=".56731"></rect>
   <rect y="60" width="150" height="1" opacity=".56731"></rect>
   <rect x="1.7764e-15" y="75" width="150" height="1" opacity=".56731"></rect>
   <rect x="3.5527e-15" y="90" width="150" height="1" opacity=".56731"></rect>
   <rect y="105" width="150" height="1" opacity=".56731"></rect>
   <rect x="3.5527e-15" y="120" width="150" height="1" opacity=".56731"></rect>
   <rect y="135" width="150" height="1" opacity=".56731"></rect>
  </g>
  <rect x="20" width="1.5" height="150" fill="#d26dc1" opacity=".56731" stroke-width=".23205"></rect>
 </g>
 <g transform="translate(-.53243 7.4132)">
  <g transform="rotate(1.2117 104.03 69.317)">
   <path d="m72.025 88.791 11.065 3.1582-23.805 33.73-0.04847 0.27666z" fill="#908fa3" stroke-width=".32746"></path>
   <path d="m68.306 108.11 1.2785 2.8213-8.6729 12.004 0.02287-0.24924z" fill="#aaaabc" stroke-width=".10455"></path>
   <path d="m69.678 106.9 0.47162 2.4542-7.732 11.331 0.0022-0.23034z" fill="#e4e4e8" stroke-width=".074463"></path>
   <path d="m65.144 108.82v5.1e-4c-0.0088-7e-5 -0.01574 4.4e-4 -0.02429 5.2e-4 -0.11249 0.23891-0.22832 0.47664-0.32608 0.72192-0.01299 0.0326-0.02498 0.0655-0.03772 0.0982-0.0019 0.0411-0.0062 0.0764-0.01602 0.0961-0.05121 0.10243-0.1912 0.42744-0.1912 0.52555l-0.0956 0.42995c0.38825 0.19321 0.74343 0.43206 1.0992 0.66921 0.20959 0.13973 0.4019 0.19283 0.62115 0.2868 0.19082 0.0818 0.08075 0.0905 0.23874 0.14315 0.13325 0.0444 0.34134 0.10897 0.47801 0.14314 0.04497 0.0112 0.09817-0.0113 0.14314 0 0.1036 0.0259 0.13566 0.11776 0.23926 0.14366 0.16997 0.0425 0.15739-0.0487 0.38189 0.0475 0.0414 0.0178 0.05286 0.0813 0.0956 0.0956 0.06044 0.0201 0.12873-0.0125 0.1912 0 0.05631 0.0113 0.08743 0.0816 0.14314 0.0956 0.1284 0.0321 0.35859-0.0597 0.47801 0 0.01904 0.01 0.04382 0.022 0.07028 0.0336 0.0213-0.0349 0.04562-0.0706 0.07286-0.10646 0.0539-0.0709 0.09915-0.14977 0.15968-0.21497 0.09646-0.10392 0.1955-0.18091 0.29197-0.23461 0.0059-0.0128 0.01107-0.0252 0.01757-0.0382 0.0681-0.13614 0.03278-0.065 0.10542-0.21291 0.09018-0.17639 0.17717-0.35424 0.26407-0.53227 0.02002-0.041 0.04111-0.0793 0.06305-0.11472-0.07785-0.0188-0.15546-0.0384-0.23254-0.0605-0.353-0.10086-0.72974-0.25466-1.0511-0.42995-0.10082-0.055-0.18225-0.14368-0.2868-0.1912-0.07393-0.0336-0.16611-0.0118-0.23874-0.0481-0.13133-0.0657-0.20737-0.21344-0.33486-0.28629-0.14272-0.0815-0.32385-0.12974-0.47749-0.1912-0.03307-0.0132-0.06375-0.0322-0.0956-0.0481-0.03185-0.0318-0.05531-0.0754-0.0956-0.0956-0.12495-0.0625-0.21694-0.0251-0.33435-0.0956-0.03863-0.0232-0.05531-0.0754-0.0956-0.0956-0.05873-0.0294-0.13247-0.0182-0.1912-0.0476-0.09931-0.0496-0.1875-0.1896-0.2868-0.23926-0.08665-0.0433-0.1949-0.0168-0.2868-0.0475-0.12454-0.0415-0.22808-0.13806-0.33435-0.1912-0.0098-5e-3 -0.06583-8e-3 -0.12144-9e-3z" display="none" fill="#5b5874" opacity=".416" stroke-width=".26458"></path>
  </g>
  <g transform="rotate(1.0784 512.66 260.03)">
   <ellipse transform="matrix(.89085 .3225 -.2527 .91294 1.2009 10.783)" cx="98.617" cy="56.764" rx="41.14" ry="27.742" fill="#e6bae5" stroke-width=".29442"></ellipse>
  </g>
  <g transform="matrix(.94746 0 0 .94725 5.7156 .93958)" fill="#d284d1">
   <ellipse transform="matrix(.93347 .35865 -.32432 .94595 0 0)" cx="103.11" cy="44.013" rx="10.209" ry="6.8245" stroke-width=".25019"></ellipse>
   <path transform="matrix(1.0553 .019868 -.019864 1.0555 -.77173 -11.129)" d="m85.014 40.361 23.805 12.022-20.073 35.185-17.588-7.9676z" stroke-width=".26458"></path>
  </g>
  <g transform="rotate(5.6035 180.17 106.3)">
   <g fill="#da9ad9">
    <ellipse transform="matrix(.95477 .29736 -.30511 .95232 -4.5066e-8 5.1812e-8)" cx="104.92" cy="18.612" rx="22.444" ry="11.101" stroke-width=".26608"></ellipse>
    <path transform="rotate(-9.594 67.223 -318.52)" d="m47.71 37.564 0.16542 12.413 0.15852 11.874c0.03063-0.01236 0.06139-0.02441 0.09172-0.03763 0.28934-0.12861 0.57878-0.25685 0.86904-0.38332 0.34455-0.14201 0.68464-0.29482 1.0345-0.42358 0.22169-0.08061 0.44674-0.15601 0.67826-0.20289l8.001-4.763 10.668-6.3501-10.833-6.0633z" stroke-width=".26458"></path>
    <path transform="translate(24.846 -16.627)" d="m47.71 37.564 0.16542 12.413 0.13167 9.8891c0.06681 0.10601 0.1261 0.23445 0.17318 0.38906 0.07847 0.25776 0.13247 0.52156 0.21348 0.77869 0.11601 0.31782 0.21531 0.64028 0.30203 0.9668l10.013-5.9599 10.668-6.3502-10.833-6.0637z" stroke-width=".26458"></path>
   </g>
   <ellipse transform="matrix(.93574 .35269 -.36306 .93176 0 0)" cx="106.66" cy="-6.1976" rx="31.426" ry="13.771" fill="#e6bae5" stroke-width=".28989"></ellipse>
  </g>
 </g>
</svg><style>@media (prefers-color-scheme: light) { :root { filter: none; } }
@media (prefers-color-scheme: dark) { :root { filter: none; } }
</style></svg>